/* XPM */
static char * editor_record_xpm[] = {
"15 15 4 1",
" 	c None",
".	c #F48181",
"+	c #E00606",
"@	c #FFFFFF",
"    .......    ",
"  ...+++++...  ",
" ..+++++++++.. ",
" .+++++++++++. ",
"..+++++++++++.@",
".++++++++++++.@",
".++++++++++++.@",
".++++++++++++.@",
".++++++++++++.@",
".+++++++++++..@",
"..++++++++++.@@",
" .+++++++++..@ ",
" ..++++++...@@ ",
"  ...+....@@@  ",
"    .@@@@@@    "};
